<svg width="40" height="40" viewBox="0 0 40 40" fill="none" xmlns="http://www.w3.org/2000/svg">
<rect width="40" height="40" rx="20" fill="white"/>
<path fill-rule="evenodd" clip-rule="evenodd" d="M20 27.612C24.4873 27.612 28.125 24.0891 28.125 19.7435C28.125 15.3978 24.4873 11.875 20 11.875C15.5127 11.875 11.875 15.3978 11.875 19.7435C11.875 22.107 12.9511 24.2271 14.6546 25.6695V27.2617C14.6546 27.8841 15.2885 28.3015 15.8537 28.0513L17.6206 27.2692C18.3732 27.4921 19.1721 27.612 20 27.612Z" fill="url(#paint0_linear_434_2239)"/>
<path d="M18.0544 18.0708L15.6983 21.2931C15.4457 21.6386 15.9 22.0536 16.2458 21.7933L18.2577 20.2793C18.4625 20.1252 18.7495 20.1231 18.9567 20.2742L20.746 21.5795C21.0891 21.8298 21.5795 21.7578 21.8293 21.4205L24.3003 18.0838C24.5566 17.7377 24.0988 17.3193 23.7524 17.583L21.6254 19.2023C21.4206 19.3582 21.132 19.361 20.9239 19.2092L19.1404 17.9082C18.7958 17.6568 18.3031 17.7306 18.0544 18.0708Z" fill="white"/>
<defs>
<linearGradient id="paint0_linear_434_2239" x1="20" y1="11.875" x2="17.3929" y2="28.0365" gradientUnits="userSpaceOnUse">
<stop stop-color="#188C15"/>
<stop offset="1" stop-color="#197D16"/>
</linearGradient>
</defs>
</svg>
