<svg width="40" height="40" viewBox="0 0 40 40" fill="none" xmlns="http://www.w3.org/2000/svg">
<rect width="40" height="40" rx="20" fill="white"/>
<path d="M12.3282 26.5053H22.0765C22.0088 27.8122 21.1666 28.6447 20.0049 28.6447C18.8335 28.6447 18.001 27.8122 17.9236 26.5053H16.4134C16.4909 28.364 17.9526 30 20.0049 30C22.0475 30 23.5092 28.364 23.5867 26.5053H27.6719C28.5914 26.5053 29.1337 26.031 29.1337 25.334C29.1337 24.3659 28.1559 23.4947 27.3137 22.6331C26.6748 21.9651 26.5005 20.5905 26.4328 19.4773C26.3553 15.6631 25.3776 13.1946 22.7929 12.2652C22.4734 11.0068 21.4279 10 20.0049 10C18.5722 10 17.5363 11.0068 17.2072 12.2652C14.6322 13.1946 13.6447 15.6631 13.577 19.4773C13.4996 20.5905 13.335 21.9651 12.6864 22.6331C11.8539 23.4947 10.8665 24.3659 10.8665 25.334C10.8665 26.031 11.4182 26.5053 12.3282 26.5053ZM12.7542 25.0436V24.9274C12.9284 24.637 13.4996 24.0755 14.0126 23.5044C14.6999 22.7299 15.0291 21.4908 15.1162 19.5934C15.1936 15.3727 16.4521 14.0174 18.1172 13.5721C18.3592 13.514 18.485 13.3882 18.4947 13.1461C18.5335 12.1297 19.1046 11.423 20.0049 11.423C20.8955 11.423 21.4763 12.1297 21.5054 13.1461C21.515 13.3882 21.6506 13.514 21.8926 13.5721C23.548 14.0174 24.8065 15.3727 24.8936 19.5934C24.971 21.4908 25.3002 22.7299 25.9972 23.5044C26.5005 24.0755 27.0814 24.637 27.2556 24.9274V25.0436H12.7542Z" fill="black"/>
</svg>
